<svg width="1289" height="1285" viewBox="0 0 1289 1285" fill="none" xmlns="http://www.w3.org/2000/svg">
<path d="M601.508 39.6835C621.036 45.3893 640.886 52.4612 661.057 60.5579C681.289 68.5339 701.882 77.0123 722.796 85.7317C743.832 93.6475 765.248 101.483 786.987 109.097C808.846 115.587 831.026 121.815 853.427 127.822C875.848 132.744 898.37 137.606 920.772 142.549C942.952 146.768 964.73 151.348 985.806 156.451C1006.2 161.293 1025.42 166.959 1043.14 173.509C1059.56 180.239 1073.98 188.095 1086.06 197.095C1096.37 206.538 1104.02 217.186 1108.9 229.02C1112.02 241.395 1112.54 254.917 1110.59 269.462C1107.76 284.531 1103.3 300.543 1097.77 317.339C1092.97 334.557 1088.37 352.458 1084.73 370.901C1083.69 389.606 1084.81 408.752 1088.57 428.18C1096.06 447.789 1106.57 467.598 1119.93 487.468C1136.47 507.438 1154.89 527.409 1174.32 547.279C1194.49 567.189 1213.62 586.938 1230.47 606.446C1244.82 625.934 1254.62 644.699 1259.4 662.68C1259.97 680.642 1255.2 697.839 1245.52 714.233C1232.2 730.628 1215.1 746.278 1195.11 761.206C1173.63 776.214 1151.01 790.599 1128.11 804.441C1106.09 818.545 1085.15 832.287 1065.79 845.768C1048.75 859.751 1033.76 873.755 1020.84 887.919C1010.46 902.886 1001.84 918.276 994.585 934.228C989.221 951.225 984.54 968.985 980.1 987.509C976.544 1007.12 972.526 1027.47 967.704 1048.42C962.922 1070.1 956.875 1092 949.441 1113.8C941.586 1135.5 932.143 1156.37 921.173 1175.92C909.641 1194.22 896.643 1210.34 882.257 1223.78C867.43 1234.89 851.398 1242.66 834.341 1246.82C816.962 1248.25 798.74 1246 779.814 1240.21C760.728 1232.3 741.079 1221.63 720.948 1208.69C700.777 1195.37 680.224 1181.18 659.329 1166.86C638.435 1154.32 617.721 1143.25 597.209 1134.13C576.696 1128.04 556.364 1124.25 536.213 1122.66C516.022 1124.01 495.951 1127 476.061 1131.22C456.05 1137.21 436.16 1143.37 416.411 1149.16C396.561 1155.17 376.832 1159.79 357.284 1162.6C337.695 1164.41 318.348 1163.81 299.342 1160.69C280.436 1155.91 261.993 1148.48 244.152 1138.55C226.613 1127 209.857 1113.18 194.006 1097.41C178.716 1080.41 164.492 1061.87 151.513 1042.16C139.218 1021.72 128.228 1000.51 118.625 978.77C109.684 956.79 102.07 934.59 95.7814 912.369C89.9149 890.169 85.1735 868.069 81.4567 846.21C77.7398 824.492 74.7664 803.015 72.4158 781.839C69.6231 760.804 67.1922 740.03 65.0625 719.557C62.1494 699.185 59.417 679.034 56.8454 659.124C53.4902 639.274 50.3962 619.626 47.684 600.218C44.5096 580.81 42.1188 562.065 40.612 544.024C39.1855 525.982 39.0248 508.604 40.1901 491.948C41.8978 475.293 45.1726 459.341 50.0145 444.152C55.6399 428.923 62.8526 414.438 71.5921 400.696C81.0147 386.893 91.8034 373.774 103.757 361.338C116.113 348.721 129.413 336.686 143.457 325.174C157.48 313.321 172.026 301.849 186.893 290.678C201.419 278.965 216.126 267.373 230.912 255.841C245.177 243.606 259.502 231.27 273.867 218.834C287.669 205.594 301.552 192.213 315.595 178.732C329.157 164.588 342.959 150.464 357.083 136.541C370.825 122.297 385.029 108.535 399.675 95.4757C414.101 82.6779 429.109 71.0051 444.679 60.6985C460.129 51.2357 476.242 43.5007 492.997 37.7548C509.673 33.2142 527.051 30.8033 545.133 30.6024C563.175 31.607 581.96 34.6608 601.488 39.6634" stroke="url(#paint0_linear_35_10)" stroke-width="2" stroke-linecap="round" stroke-dasharray="3 5"/>
<path opacity="0.96" d="M653.732 62.7181C672.333 69.6914 691.203 77.9929 710.284 87.2963C729.429 96.5437 748.88 106.316 768.61 116.411C788.473 125.769 808.637 135.129 829.034 144.344C849.565 152.501 870.293 160.45 891.077 168.162C911.854 174.846 932.516 181.441 952.858 187.993C972.911 193.8 992.306 199.803 1010.77 206.162C1028.48 212.106 1044.83 218.618 1059.51 225.798C1072.95 232.91 1084.33 240.864 1093.35 249.679C1103.33 263.635 1108.66 296.721 1104.78 315.742C1100.98 329.129 1095.94 343.355 1090.19 358.357C1085.41 373.79 1081.07 389.978 1077.76 406.824C1077.01 424.112 1078.3 442.028 1081.99 460.456C1089.08 479.305 1098.79 498.601 1110.96 518.212C1125.87 538.097 1142.32 558.171 1159.53 578.258C1177.28 598.424 1194 618.436 1208.56 638.115C1220.86 657.634 1229.03 676.218 1232.68 693.817C1232.5 711.146 1227.5 727.469 1217.98 742.829C1205.05 757.968 1188.53 772.249 1169.17 785.746C1148.23 799.272 1125.93 812.238 1103.07 824.783C1080.67 837.662 1058.93 850.366 1038.35 863.072C1019.62 876.412 1002.61 889.993 987.346 903.96C974.292 918.829 962.868 934.276 952.79 950.361C944.491 967.479 937.009 985.299 929.941 1003.81C923.877 1023.22 917.635 1043.17 910.928 1063.42C904.469 1084.15 897.109 1104.8 888.694 1124.99C880.103 1144.82 870.28 1163.57 859.218 1180.73C847.871 1196.53 835.316 1210.04 821.643 1220.84C807.785 1229.4 792.927 1234.74 777.243 1236.65C761.493 1236.08 745.017 1232.1 727.946 1224.85C710.882 1215.79 693.293 1204.18 675.224 1190.53C657.157 1176.57 638.604 1161.79 619.6 1146.83C600.461 1133.49 581.292 1121.44 562.063 1111.1C542.66 1103.51 523.174 1097.94 503.648 1094.37C483.91 1093.52 464.142 1094.22 444.373 1096.08C424.458 1099.73 404.603 1103.67 384.883 1107.41C365.131 1111.59 345.578 1114.68 326.366 1116.35C307.248 1117.27 288.554 1116.18 270.438 1112.88C252.598 1108.26 235.448 1101.27 219.124 1092C203.303 1081.31 188.437 1068.5 174.648 1053.85C161.546 1038.04 149.617 1020.72 139.002 1002.19C129.123 982.942 120.554 962.82 113.334 942.149C106.761 921.141 101.439 899.819 97.3727 878.404C93.6339 856.911 90.9 835.45 89.0995 814.174C87.2347 792.955 85.9998 771.942 85.3091 751.208C84.1103 730.539 83.1951 710.133 82.5006 690.023C81.0203 669.919 79.6404 650.103 78.4024 630.56C76.3585 611.02 74.5396 591.717 73.0387 572.759C71.0783 553.749 69.7883 535.511 69.3092 518.055C68.8931 500.564 69.5883 483.876 71.5367 467.981C73.9875 452.102 77.9133 437.012 83.2712 422.748C89.4135 408.499 97.0523 395.02 106.126 382.328C115.93 369.566 127.033 357.5 139.299 346.101C152.02 334.512 165.71 323.475 180.132 312.913C194.701 301.978 209.812 291.343 225.308 280.978C240.602 270.034 256.132 259.187 271.801 248.35C287.098 236.802 302.461 225.178 317.889 213.479C332.848 201.021 347.893 188.468 363.061 175.904C377.787 162.745 392.703 149.74 407.821 137.011C422.613 124.058 437.685 111.708 453.104 100.149C468.237 88.9118 483.793 78.8323 499.751 70.191C515.489 62.3801 531.708 56.3152 548.413 52.198C564.937 49.2362 581.977 48.3652 599.571 49.628C617.026 52.0089 635.064 56.4047 653.713 62.6966" stroke="url(#paint1_linear_35_10)" stroke-width="2" stroke-linecap="round" stroke-dasharray="3 1"/>
<path opacity="0.92" d="M702.655 90.0596C720.253 98.1788 737.97 107.594 755.814 117.98C773.701 128.352 791.792 139.281 810.06 150.539C828.455 161.186 847.049 171.862 865.757 182.452C884.583 192.064 903.475 201.504 922.258 210.704C941.02 218.908 959.481 226.946 977.451 234.875C995.067 242.003 1011.87 249.176 1027.59 256.502C1042.55 263.313 1056.07 270.447 1067.84 277.963C1082.79 289.176 1099.97 314.505 1101.92 328.824C1101.44 338.8 1099 349.514 1094.92 360.948C1090.65 372.72 1085.5 385.3 1079.91 398.63C1075.46 412.446 1071.55 427.07 1068.76 442.481C1068.37 458.478 1069.87 475.268 1073.53 492.793C1080.17 510.883 1089.08 529.619 1100.06 548.874C1113.38 568.56 1127.89 588.539 1142.92 608.651C1158.35 628.841 1172.72 648.88 1185.08 668.553C1195.39 687.956 1202 706.305 1204.53 723.526C1203.65 740.265 1198.42 755.857 1189.04 770.333C1176.52 784.425 1160.62 797.569 1141.98 809.919C1121.67 822.174 1099.84 833.908 1077.22 845.287C1054.69 857.004 1032.46 868.681 1010.98 880.486C990.9 892.996 972.125 905.895 954.802 919.284C939.352 933.629 925.312 948.62 912.515 964.296C901.383 980.958 891.093 998.268 881.352 1016.14C872.696 1034.8 864.095 1053.79 855.315 1072.9C847.007 1092.25 838.137 1111.29 828.555 1129.61C819.066 1147.42 808.707 1163.93 797.457 1178.71C786.181 1192.1 774.018 1203.16 761.064 1211.51C748.099 1217.78 734.435 1220.98 720.155 1220.94C705.966 1218.68 691.249 1213.28 676.064 1204.9C660.979 1194.94 645.433 1182.67 629.444 1168.51C613.423 1154.14 596.891 1138.95 579.821 1123.54C562.526 1109.58 544.992 1096.72 527.247 1085.35C509.135 1076.43 490.771 1069.28 472.176 1063.9C453.23 1060.99 434.119 1059.53 414.911 1059.18C395.461 1060.54 376.037 1062.28 356.755 1064.03C337.453 1066.34 318.404 1067.88 299.802 1068.26C281.402 1068.23 263.563 1066.53 246.453 1062.98C229.776 1058.38 213.956 1051.75 199.151 1043.12C184.942 1033.29 171.876 1021.55 160.024 1008.12C148.911 993.635 139.075 977.729 130.624 960.641C122.903 942.844 116.505 924.16 111.45 904.875C106.978 885.206 103.736 865.163 101.635 844.938C99.7992 824.568 98.9006 804.168 98.8431 783.847C98.6292 763.484 98.9809 743.282 99.7675 723.305C100.051 703.296 100.528 683.498 101.168 663.986C101.023 644.424 100.946 625.095 100.927 606.078C100.146 586.994 99.5296 568.177 99.2066 549.726C98.3863 531.204 98.1634 513.478 98.6345 496.581C99.151 479.649 100.683 463.572 103.329 448.363C106.461 433.162 110.929 418.841 116.736 405.38C123.293 391.923 131.255 379.295 140.544 367.465C150.589 355.599 161.896 344.42 174.326 333.908C187.29 323.208 201.214 313.03 215.907 303.305C230.857 293.192 246.393 283.384 262.364 273.801C278.315 263.646 294.538 253.571 310.96 243.524C327.155 232.796 343.457 222.021 359.85 211.179C375.891 199.678 392.016 188.148 408.213 176.689C424.034 164.731 439.986 152.993 456.086 141.643C471.82 130.159 487.744 119.331 503.865 109.404C519.677 99.7976 535.72 91.4217 552.006 84.4804C568.014 78.352 584.305 73.948 600.896 71.4332C617.229 70.0181 633.888 70.5974 650.901 73.2561C667.727 76.9436 684.967 82.577 702.635 90.0568" stroke="url(#paint2_linear_35_10)" stroke-width="2" stroke-linecap="round"/>
<path opacity="0.89" d="M747.046 121.208C763.518 130.335 779.954 140.687 796.383 152.023C812.841 163.325 829.381 175.199 845.947 187.428C862.647 199.131 879.397 210.886 896.141 222.578C912.987 233.409 929.754 244.037 946.244 254.421C962.716 263.835 978.738 273.05 994.129 282.047C1009.19 290.192 1023.3 298.277 1036.25 306.298C1053.93 317.451 1079.63 339.964 1086.91 351.7C1090.6 363.609 1087.27 389.999 1081.29 404.762C1076.97 415.116 1072.04 426.222 1066.89 438.105C1063 450.521 1059.73 463.814 1057.53 477.992C1057.56 492.876 1059.28 508.678 1062.87 525.354C1069.1 542.741 1077.2 560.919 1086.99 579.747C1098.72 599.056 1111.35 618.804 1124.29 638.74C1137.48 658.771 1149.6 678.677 1159.86 698.182C1168.27 717.31 1173.35 735.335 1174.8 752.146C1173.23 768.331 1167.74 783.283 1158.48 797.054C1146.37 810.257 1131.09 822.469 1113.18 833.829C1093.58 845.011 1072.37 855.662 1050.13 865.991C1027.72 876.589 1005.24 887.194 983.154 898.006C962.051 909.482 941.896 921.428 922.856 933.923C905.324 947.337 888.969 961.394 873.744 976.125C859.983 991.787 847.064 1008.02 834.79 1024.7C823.606 1042.05 812.691 1059.57 801.833 1077.03C791.626 1094.61 781.183 1111.66 770.366 1127.87C759.908 1143.46 748.93 1157.65 737.418 1170.01C726.134 1181.03 714.276 1189.74 701.955 1195.83C689.833 1200.03 677.288 1201.32 664.34 1199.61C651.664 1195.96 638.599 1189.43 625.237 1180.17C612.036 1169.59 598.452 1156.87 584.458 1142.42C570.451 1127.85 555.919 1112.46 540.769 1096.79C525.364 1082.41 509.579 1068.93 493.403 1056.7C476.802 1046.64 459.785 1038.14 442.399 1031.16C424.576 1026.41 406.471 1022.97 388.186 1020.57C369.609 1019.8 350.998 1019.48 332.524 1019.3C314.024 1019.8 295.842 1019.78 278.134 1018.9C260.689 1017.84 243.896 1015.47 227.96 1011.6C212.516 1006.97 198.073 1000.64 184.757 992.599C172.101 983.594 160.706 972.927 150.621 960.754C141.301 947.697 133.34 933.288 126.781 917.804C120.937 901.672 116.433 884.656 113.254 867.02C110.598 848.963 109.097 830.496 108.7 811.773C108.515 792.828 109.174 773.777 110.594 754.725C111.815 735.548 113.535 716.437 115.636 697.469C117.206 678.388 118.928 659.462 120.764 640.767C121.831 621.926 122.933 603.299 124.06 584.944C124.455 566.453 124.977 548.235 125.734 530.356C126.016 512.395 126.802 495.241 128.195 478.896C129.609 462.555 131.908 447.062 135.208 432.462C138.977 417.88 143.926 404.209 150.128 391.403C157.019 378.643 165.211 366.716 174.683 355.62C184.885 344.474 196.291 334.04 208.787 324.27C221.876 314.32 235.919 304.904 250.752 295.924C265.949 286.591 281.779 277.559 298.1 268.734C314.53 259.399 331.309 250.159 348.344 240.974C365.261 231.189 382.348 221.378 399.557 211.573C416.518 201.201 433.553 190.866 450.661 180.669C467.44 170.093 484.297 159.822 501.203 149.993C517.79 140.116 534.427 130.969 551.133 122.741C567.51 114.895 583.953 108.275 600.482 103.07C616.662 98.6335 632.951 95.8848 649.322 94.9617C665.398 95.0235 681.593 97.0218 697.961 100.989C714.068 105.886 730.408 112.662 747.026 121.204" stroke="url(#paint3_linear_35_10)" stroke-width="2" stroke-linecap="round" stroke-dasharray="4 7"/>
<path opacity="0.85" d="M785.774 155.33C801.011 165.33 816.085 176.475 830.978 188.53C845.876 200.566 860.69 213.184 875.384 226.143C890.212 238.639 904.935 251.21 919.515 263.697C934.191 275.417 948.612 286.938 962.677 298.167C976.688 308.502 990.173 318.56 1002.89 328.291C1015.35 337.194 1026.82 345.85 1037.1 354.33C1050.97 365.942 1069.79 388.276 1074.26 399.339C1075.85 410.238 1070.27 433.763 1064.19 446.81C1057.93 460.958 1046.72 494.002 1043.85 513.293C1044.33 527.236 1046.25 542.204 1049.75 558.132C1055.51 574.861 1062.79 592.47 1071.38 610.816C1081.6 629.695 1092.43 649.064 1103.32 668.705C1114.39 688.395 1124.39 707.963 1132.61 727.163C1139.22 745.918 1142.86 763.538 1143.24 779.921C1140.99 795.544 1135.22 809.914 1126.04 823.046C1114.31 835.504 1099.63 846.916 1082.43 857.454C1063.59 867.683 1043.05 877.356 1021.37 886.699C999.266 896.212 976.805 905.726 954.429 915.453C932.666 925.734 911.5 936.481 891.138 947.775C871.946 959.868 853.701 972.591 836.408 985.924C820.388 1000.07 805.187 1014.7 790.657 1029.69C777.184 1045.22 764.138 1060.78 751.391 1076.19C739.376 1091.59 727.437 1106.37 715.461 1120.2C704.005 1133.39 692.398 1145.15 680.585 1155.09C669.224 1163.76 657.628 1170.21 645.846 1174.2C634.492 1176.5 622.936 1176.1 611.233 1172.96C599.909 1168.15 588.404 1160.72 576.717 1150.8C565.242 1139.8 553.512 1126.87 541.432 1112.32C529.306 1097.72 516.702 1082.31 503.467 1066.55C489.922 1051.94 475.916 1038.05 461.449 1025.18C446.485 1014.23 431.001 1004.58 415.072 996.24C398.626 989.906 381.844 984.729 364.808 980.504C347.426 977.831 330.007 975.649 312.717 973.672C295.318 972.5 278.288 970.996 261.787 968.892C245.518 966.855 229.984 963.797 215.357 959.558C201.24 954.861 188.179 948.754 176.334 941.264C165.18 933.054 155.312 923.438 146.828 912.508C139.097 900.855 132.751 888.034 127.821 874.223C123.562 859.832 120.63 844.612 118.99 828.762C117.822 812.506 117.769 795.799 118.752 778.764C119.89 761.481 121.821 743.989 124.443 726.425C126.852 708.653 129.687 690.858 132.88 673.125C135.519 655.211 138.313 637.341 141.163 619.635C143.325 601.707 145.462 583.94 147.625 566.369C149.107 548.621 150.668 531.106 152.433 513.9C153.748 496.585 155.493 480.022 157.754 464.278C160.002 448.509 163.066 433.605 166.996 419.537C171.323 405.542 176.754 392.431 183.288 380.206C190.497 368.029 198.904 356.702 208.481 346.173C218.784 335.667 230.24 325.872 242.727 316.709C255.851 307.439 269.93 298.696 284.809 290.374C300.121 281.779 316.095 273.502 332.612 265.445C349.354 256.972 366.501 248.616 383.956 240.35C401.406 231.601 419.079 222.875 436.894 214.232C454.546 205.144 472.317 196.153 490.083 187.391C507.642 178.339 525.19 169.681 542.725 161.501C559.932 153.372 577.106 146.007 594.221 139.567C610.989 133.528 627.679 128.7 644.283 125.249C660.509 122.525 676.647 121.407 692.706 122.003C708.409 123.541 724.055 126.861 739.666 132.034C754.982 138.082 770.341 145.859 785.755 155.324" stroke="url(#paint4_linear_35_10)" stroke-width="2" stroke-linecap="round" stroke-dasharray="5 6"/>
<path opacity="0.81" d="M818.036 191.422C831.969 202.136 845.547 213.875 858.8 226.436C872.021 239.029 885.01 252.135 897.754 265.559C910.58 278.584 923.169 291.672 935.468 304.674C947.878 316.968 959.92 329.041 971.457 340.8C983.019 351.733 993.944 362.303 1004.07 372.493C1018.47 386.355 1041.14 411.373 1048.75 422.801C1055.25 443.538 1049.69 475.06 1043.94 486.794C1038.49 499.625 1029.47 530.086 1027.58 548.188C1028.44 561.391 1030.51 575.661 1033.84 590.974C1039.11 607.084 1045.54 624.133 1052.95 641.975C1061.67 660.34 1070.76 679.225 1079.74 698.392C1088.78 717.625 1096.76 736.724 1103.09 755.492C1108 773.74 1110.24 790.857 1109.59 806.759C1106.66 821.822 1100.58 835.619 1091.46 848.171C1080.07 859.948 1065.94 870.655 1049.45 880.45C1031.4 889.823 1011.62 898.602 990.589 907.005C968.984 915.454 946.803 923.841 924.439 932.375C902.379 941.363 880.613 950.716 859.367 960.517C839.014 971.033 819.351 982.059 800.479 993.612C782.686 1005.84 765.606 1018.46 749.242 1031.34C733.863 1044.63 719.033 1057.88 704.668 1070.86C691.112 1083.79 677.857 1096.01 664.855 1107.27C652.545 1117.91 640.349 1127.15 628.302 1134.64C611.151 1143.14 578.117 1146.87 562.206 1141.53C552.075 1135.73 541.946 1127.59 531.803 1117.23C521.916 1105.99 511.848 1092.97 501.539 1078.52C491.192 1064.05 480.367 1048.78 469.008 1033.11C457.282 1018.43 445.067 1004.33 432.395 991.06C419.112 979.45 405.326 968.919 391.048 959.491C376.2 951.845 360.984 945.198 345.487 939.432C329.59 935.102 313.639 931.267 297.794 927.728C281.827 925.043 266.215 922.21 251.147 919C236.251 916.024 222.133 912.328 208.939 907.752C196.215 902.942 184.574 897.053 174.175 890.059C164.426 882.576 155.984 873.925 148.923 864.199C142.579 853.922 137.587 842.645 134.015 830.477C131.041 817.844 129.364 804.425 128.95 790.422C128.936 776.031 129.991 761.177 132.017 745.953C134.155 730.427 137.05 714.644 140.586 698.691C143.888 682.501 147.608 666.166 151.633 649.814C155.14 633.186 158.78 616.543 162.507 599.954C165.544 583.089 168.591 566.313 171.659 549.652C174.08 532.775 176.61 516.066 179.297 499.628C181.594 483.027 184.226 467.147 187.285 452.024C190.358 436.864 194.119 422.513 198.66 409.006C203.543 395.56 209.416 382.971 216.299 371.246C223.771 359.609 232.373 348.796 242.032 338.777C252.401 328.806 263.843 319.528 276.299 310.924C289.381 302.251 303.38 294.107 318.199 286.415C333.493 278.534 349.502 270.981 366.068 263.717C382.931 256.114 400.258 248.702 417.917 241.435C435.677 233.776 453.688 226.252 471.859 218.873C489.983 211.156 508.165 203.631 526.389 196.399C544.396 189.003 562.395 182.031 580.276 175.616C597.887 169.294 615.36 163.756 632.645 159.133C649.581 154.939 666.302 151.907 682.792 150.203C698.886 149.168 714.724 149.643 730.323 151.7C745.501 154.608 760.468 159.195 775.2 165.471C789.621 172.533 803.884 181.184 817.998 191.408" stroke="url(#paint5_linear_35_10)" stroke-width="2" stroke-linecap="round"/>
<path opacity="0.77" d="M843.319 228.355C855.861 239.599 867.901 251.763 879.448 264.629C890.952 277.543 902.078 290.903 912.802 304.523C923.61 317.806 934.051 331.122 944.083 344.32C954.216 356.903 963.889 369.234 972.99 381.22C982.14 392.413 990.619 403.237 998.287 413.608C1009.18 427.743 1025.4 452.919 1030.31 464.14C1033.29 484.054 1026.08 513.508 1020.93 524.364C1016.43 536.327 1009.6 565.047 1008.55 582.31C1009.71 594.951 1011.83 608.686 1014.93 623.479C1019.62 639.033 1025.2 655.533 1031.43 672.815C1038.71 690.612 1046.12 708.934 1053.27 727.554C1060.42 746.175 1066.51 764.713 1071.04 782.882C1074.33 800.517 1075.26 817.061 1073.62 832.406C1070.03 846.876 1063.64 860.084 1054.53 872.045C1043.44 883.179 1029.86 893.235 1014.07 902.32C996.799 910.916 977.868 918.852 957.625 926.328C936.694 933.715 915.011 940.962 892.969 948.224C870.984 955.797 849.056 963.639 827.401 971.802C806.362 980.506 785.824 989.613 765.932 999.098C746.889 1009.14 728.504 1019.44 710.8 1029.89C694.008 1040.66 677.823 1051.31 662.235 1061.61C647.498 1071.83 633.245 1081.36 619.475 1089.92C606.464 1097.92 593.858 1104.59 581.645 1109.64C564.554 1114.81 533.064 1113.3 518.55 1106.2C509.459 1099.57 500.554 1090.87 491.759 1080.21C483.266 1068.83 474.702 1055.89 466.004 1041.64C457.252 1027.41 448.128 1012.44 438.528 997.015C428.531 982.467 418.083 968.332 407.186 954.854C395.682 942.822 383.656 931.657 371.164 921.427C358.052 912.769 344.553 904.972 330.815 897.95C316.618 892.241 302.362 887.055 288.21 882.226C273.876 878.239 259.875 874.249 246.415 870.083C233.07 866.3 220.486 862 208.796 857.133C192.428 849.345 166.317 829.237 156.953 816.758C149.868 802.838 143.152 770.532 143.266 752.516C144.096 739.956 145.931 726.923 148.714 713.502C151.546 699.772 155.094 685.726 159.254 671.448C163.176 656.866 167.513 642.095 172.14 627.169C176.28 611.956 180.585 596.621 184.969 581.255C188.73 565.563 192.535 549.87 196.36 534.23C199.625 518.316 202.976 502.506 206.497 486.906C209.668 471.103 213.118 455.955 216.964 441.492C220.763 426.986 225.205 413.254 230.317 400.287C235.746 387.396 242.037 375.334 249.241 364.08C256.99 352.938 265.761 342.61 275.497 333.024C285.903 323.565 297.3 314.793 309.64 306.667C322.619 298.541 336.493 290.973 351.141 283.886C366.316 276.705 382.189 269.883 398.642 263.388C415.447 256.699 432.72 250.242 450.371 244.022C468.191 237.526 486.289 231.243 504.531 225.178C522.792 218.925 541.136 212.928 559.476 207.283C577.669 201.572 595.774 196.349 613.732 191.7C631.409 187.232 648.901 183.518 666.089 180.725C682.934 178.351 699.456 177.087 715.604 177.042C731.337 177.627 746.705 179.61 761.637 183.051C776.186 187.244 790.32 192.947 804.066 200.194C817.473 208.147 830.561 217.543 843.301 228.347" stroke="url(#paint6_linear_35_10)" stroke-width="2" stroke-linecap="round" stroke-dasharray="1 8"/>
<path opacity="0.73" d="M861.515 265C872.611 276.604 883.063 288.98 892.904 301.94C902.69 314.962 911.944 328.336 920.706 341.901C929.522 355.199 937.87 368.474 945.702 381.608C953.667 394.197 961.074 406.509 967.89 418.435C977.908 435.094 994.19 465.003 1000.09 478.213C1006.95 500.522 1006.77 529.83 1003.49 539.152C999.979 548.764 992.005 570.71 988.56 583.686C987.456 593.244 986.81 603.732 986.727 615.209C988.067 627.474 990.113 640.803 992.885 655.115C996.964 670.177 1001.63 686.146 1006.68 702.873C1012.55 720.038 1018.37 737.722 1023.8 755.656C1029.17 773.579 1033.47 791.407 1036.34 808.895C1038.14 825.813 1037.83 841.687 1035.27 856.37C1031.03 870.194 1024.34 882.794 1015.25 894.144C1004.43 904.634 991.344 914.022 976.269 922.452C959.837 930.266 941.782 937.365 922.421 943.923C902.357 950.262 881.446 956.35 859.999 962.333C838.449 968.466 816.779 974.693 795.193 981.103C773.991 987.902 753.142 994.937 732.753 1002.22C713.072 1009.88 693.961 1017.71 675.496 1025.57C657.842 1033.67 640.823 1041.55 624.481 1049.07C608.986 1056.5 594.115 1063.24 579.873 1069.06C566.463 1074.39 553.639 1078.51 541.423 1081.2C524.529 1083.13 494.545 1076.74 481.25 1068.04C473.092 1060.68 465.241 1051.53 457.655 1040.7C450.373 1029.3 443.142 1016.53 435.883 1002.59C428.559 988.724 420.986 974.133 413.041 959.09C404.669 944.799 395.945 930.821 386.784 917.36C377.029 905.13 366.785 893.597 356.141 882.851C344.844 873.443 333.202 864.806 321.332 856.846C308.959 850.076 296.544 843.807 284.217 837.928C271.657 832.905 259.418 827.963 247.691 823.045C230.512 816.176 200.705 800.847 188.666 791.929C178.496 782.168 165.222 758.966 162.135 745.579C160.932 731.107 164.578 699.099 168.989 681.783C172.234 669.772 176.173 657.405 180.703 644.785C184.993 631.807 189.704 618.555 194.718 605.123C199.266 591.326 204.008 577.338 208.898 563.246C213.205 548.794 217.586 534.247 222.05 519.675C225.982 504.817 230.058 489.99 234.318 475.286C238.252 460.383 242.457 446.037 246.994 432.303C251.497 418.505 256.554 405.416 262.228 393.046C268.143 380.737 274.853 369.199 282.357 358.43C290.361 347.793 299.268 337.938 309.087 328.803C319.469 319.81 330.791 311.529 343.003 303.885C355.796 296.304 369.444 289.297 383.841 282.806C398.751 276.295 414.34 270.218 430.529 264.51C447.08 258.722 464.108 253.236 481.494 248.058C499.128 242.761 517.004 237.732 535.061 233.005C553.155 228.207 571.321 223.744 589.456 219.676C607.473 215.658 625.377 212.149 643.081 209.263C660.547 206.568 677.71 204.646 694.524 203.586C710.993 202.955 727.044 203.355 742.621 204.891C757.776 206.998 772.444 210.35 786.561 215.025C800.279 220.397 813.454 227.075 826.085 235.148C838.392 243.822 850.183 253.793 861.498 264.99" stroke="url(#paint7_linear_35_10)" stroke-width="2" stroke-linecap="round" stroke-dasharray="1 4"/>
<path opacity="0.7" d="M872.863 300.305C882.503 312.086 891.36 324.465 899.527 337.335C907.617 350.251 915.101 363.449 921.968 376.757C928.897 389.818 935.278 402.841 941.092 415.673C947.023 428.055 952.389 440.128 957.128 451.803C964.108 468.201 974.706 497.634 978.11 510.629C981.264 532.737 978.319 561.78 975.084 571.026C972.014 580.614 965.597 602.444 963.011 615.286C962.224 629.909 964.491 664.841 967.744 685.252C971.131 699.853 974.85 715.281 978.725 731.403C983.238 747.905 987.535 764.863 991.329 782.051C995.049 799.169 997.731 816.199 999.049 832.867C999.474 848.993 998.034 864.082 994.595 878.049C989.786 891.173 982.808 903.067 973.739 913.757C963.166 923.591 950.611 932.314 936.242 940.031C920.676 947.087 903.581 953.365 885.239 959.02C866.182 964.342 846.223 969.284 825.684 973.978C804.922 978.649 783.892 983.294 762.817 987.933C741.981 992.796 721.354 997.743 701.052 1002.78C681.32 1008.08 662.055 1013.39 643.42 1018.64C625.467 1024.02 608.188 1029.16 591.592 1033.9C575.8 1038.53 560.735 1042.5 546.419 1045.66C526.517 1049.24 491.628 1049.37 476.57 1045.29C463.219 1038.44 440.288 1015.61 430.303 999.899C424.068 988.561 417.989 976.037 412.013 962.485C405.972 949.035 399.782 934.92 393.348 920.364C386.505 906.454 379.35 892.774 371.898 879.525C363.803 867.295 355.342 855.642 346.517 844.639C337.051 834.799 327.289 825.579 317.324 817.016C306.849 809.486 296.319 802.419 285.915 795.79C269.973 787.131 240.173 771.178 226.96 763.317C214.906 755.501 196.374 738.047 190.235 728.172C185.829 717.587 183.395 693.628 185.15 680.331C188.15 666.158 198.373 635.419 205.091 618.938C209.532 607.484 214.401 595.729 219.604 583.71C224.374 571.323 229.406 558.673 234.589 545.857C239.279 532.658 244.093 519.299 249.061 505.848C253.536 492.085 258.195 478.296 263.111 464.55C267.677 450.607 272.522 437.125 277.702 424.165C282.814 411.161 288.443 398.77 294.611 387.029C300.97 375.361 308.054 364.39 315.858 354.159C324.055 344.059 333.089 334.702 342.92 326.039C353.285 317.547 364.492 309.755 376.51 302.595C389.067 295.561 402.385 289.128 416.435 283.23C430.966 277.398 446.132 272.063 461.872 267.138C477.969 262.25 494.516 257.74 511.45 253.595C528.585 249.434 545.996 245.663 563.544 242.239C581.171 238.841 598.847 235.854 616.449 233.321C634.005 230.9 651.378 229.029 668.499 227.784C685.397 226.778 701.956 226.532 718.1 227.094C733.914 228.064 749.226 229.978 763.984 232.919C778.325 236.405 792.112 240.991 805.215 246.737C817.941 253.076 830.043 260.59 841.465 269.291C852.527 278.524 862.997 288.881 872.846 300.294" stroke="url(#paint8_linear_35_10)" stroke-width="2" stroke-linecap="round" stroke-dasharray="7 2"/>
<path opacity="0.66" d="M877.959 333.422C886.124 345.171 893.446 357.422 900.011 369.989C906.501 382.626 912.285 395.441 917.43 408.31C922.618 420.986 927.214 433.55 931.206 445.919C937.103 463.732 946.173 496.755 949.284 511.743C953.058 537.624 952.825 570.609 950.721 580.211C945.65 599.231 937.544 631.184 935.578 644.157C935.174 658.803 937.237 693.278 939.729 713.175C942.354 727.332 945.074 742.208 947.795 757.658C950.99 773.482 953.834 789.647 956.13 805.981C958.311 822.232 959.496 838.347 959.419 854.107C958.586 869.336 956.121 883.563 951.926 896.716C946.599 909.035 939.385 920.19 930.368 930.167C920.086 939.288 908.07 947.307 894.434 954.308C879.759 960.619 863.706 966.09 846.478 970.82C828.587 975.162 809.799 978.994 790.405 982.43C770.732 985.735 750.724 988.818 730.595 991.762C710.562 994.777 690.645 997.703 670.981 1000.59C651.736 1003.59 632.908 1006.49 614.629 1009.23C596.965 1012.04 579.929 1014.54 563.61 1016.65C548.016 1018.61 533.169 1020.01 519.17 1020.65C499.697 1020.64 466.052 1014.73 451.842 1008.31C439.409 999.682 418.744 974.988 410.14 959.124C404.808 947.864 399.761 935.641 394.911 922.54C390.005 909.548 385.054 895.974 379.971 882.004C374.495 868.567 368.836 855.345 362.939 842.446C356.455 830.413 349.682 818.84 342.62 807.828C334.916 797.791 326.991 788.29 318.912 779.373C305.996 767.569 279.981 747.195 267.52 738.196C255.349 730.059 234.521 714.127 226.331 706.002C215.367 688.6 210.224 658.818 212.357 647.415C215.539 635.263 225.831 608.711 232.526 594.33C236.933 584.277 241.808 573.894 247.025 563.215C251.869 552.162 257.012 540.805 262.366 529.229C267.286 517.258 272.406 505.086 277.705 492.77C282.611 480.141 287.734 467.422 293.142 454.688C298.258 441.74 303.652 429.195 309.342 417.093C314.997 404.939 321.106 393.32 327.702 382.259C334.471 371.302 341.854 360.969 349.885 351.314C358.255 341.808 367.362 332.995 377.203 324.847C387.463 316.908 398.501 309.641 410.252 302.999C422.474 296.529 435.41 290.684 449.005 285.399C463.023 280.251 477.625 275.633 492.745 271.496C508.212 267.465 524.093 263.888 540.311 260.734C556.747 257.69 573.403 255.059 590.213 252.864C607.067 250.777 623.95 249.16 640.736 248.046C657.464 247.114 674.016 246.725 690.249 246.975C706.306 247.495 721.969 248.722 737.144 250.712C752.021 253.107 766.367 256.359 780.074 260.513C793.424 265.151 806.104 270.769 818.073 277.385C829.661 284.519 840.539 292.652 850.666 301.804C860.46 311.409 869.563 321.952 877.942 333.41" stroke="url(#paint9_linear_35_10)" stroke-width="2" stroke-linecap="round" stroke-dasharray="5 6"/>
<path opacity="0.62" d="M877.647 363.757C884.378 375.316 890.24 387.244 895.321 399.377C900.309 411.589 904.575 423.873 908.17 436.14C915.54 460.246 920.507 483.548 923.208 505.422C926.64 525.755 927.864 544.341 926.873 561.067C926.804 576.337 924.655 590.363 920.624 603.5C918.133 616.471 914.441 629.923 910.114 644.523C908.467 660.718 907.09 679.385 906.339 700.881C908.766 724.843 911.672 751.746 914.33 780.891C916.253 795.93 917.756 811.244 918.64 826.665C919.415 841.967 919.251 857.102 917.93 871.859C915.981 886.083 912.633 899.379 907.788 911.612C902.012 923.08 894.65 933.435 885.726 942.619C864.831 958.552 838.102 970.338 806.773 978.63C773.037 985.007 736.527 989.313 698.875 992.172C661.387 994.774 624.422 996.609 589.181 997.563C555.946 998.455 525.293 997.8 497.934 994.856C473.308 990.809 452.088 983.381 434.477 971.928C419.272 958.671 406.961 941.176 397.245 919.61C392.732 908.515 388.596 896.605 384.747 884.016C380.804 871.506 376.967 858.532 373.102 845.217C368.86 832.347 364.531 819.64 360.07 807.243C355.039 795.548 349.826 784.252 344.41 773.443C331.729 754.182 318.575 736.841 305.588 721.381C291.038 708.471 277.823 696.564 266.798 685.309C255.662 675.145 247.697 664.726 243.357 653.83C239.603 642.773 239.615 630.7 243.234 617.582C246.992 603.526 253.735 588.133 262.903 571.533C271.214 553.49 281.157 534.12 292.369 513.692C297.389 502.926 302.687 491.897 308.229 480.704C313.403 469.2 318.88 457.557 324.668 445.889C330.209 433.984 336.035 422.427 342.161 411.231C348.225 399.983 354.725 389.184 361.666 378.919C375.969 358.642 392.731 340.775 411.896 325.48C432.51 311.022 455.851 299.097 481.507 289.564C508.627 280.855 537.755 274.25 568.158 269.68C599.31 265.748 631.06 263.75 662.519 263.798C693.709 264.752 723.85 268.085 752.141 274.118C779.257 281.656 804.004 292.349 825.773 306.418C836.112 314.109 845.696 322.687 854.489 332.07C862.959 341.864 870.693 352.43 877.632 363.744" stroke="url(#paint10_linear_35_10)" stroke-width="2" stroke-linecap="round" stroke-dasharray="6 3"/>
<path opacity="0.58" d="M872.938 391.019C883.501 413.619 890.833 436.932 895.336 460.173C899.978 483.044 902.282 505.085 902.513 525.768C903.499 545.279 902.581 563.26 899.899 579.596C898.344 594.926 895.202 609.178 890.746 622.79C887.925 636.484 884.284 650.67 880.242 665.954C878.603 682.777 877.098 701.786 875.843 723.18C877.153 746.723 878.401 772.681 878.985 800.379C880.514 828.892 879.729 857.669 875.284 885.388C868.887 911.165 857.322 933 840.601 950.482C820.667 964.898 795.763 975.172 766.96 981.847C736.062 986.439 702.682 988.57 668.204 988.779C633.719 988.363 599.606 986.679 567.043 983.758C536.126 980.565 507.665 975.786 482.352 968.972C459.46 961.269 439.951 950.804 424.034 937.136C410.235 922.197 399.415 903.933 391.321 882.545C383.905 860.696 377.83 836.618 372.537 811.111C365.809 787.039 358.92 763.907 351.635 742.383C342.044 723.383 332.214 706.118 322.63 690.669C311.376 677.353 301.312 665.205 293.09 653.991C281.434 638.818 273.166 608.283 277.206 591.45C280.879 579.125 287.283 565.68 296.02 551.146C303.92 535.228 313.555 518.028 324.6 499.792C334.381 480.091 345.404 459.525 357.758 438.548C369.279 416.727 382.163 396.186 396.527 377.32C411.191 358.694 428.022 342.276 446.951 328.254C467.011 315.087 489.41 304.383 513.808 296.089C539.365 288.736 566.635 283.624 594.95 280.663C623.826 278.562 653.135 278.545 682.039 280.635C710.611 283.752 738.07 289.209 763.606 297.142C788.048 306.479 810.074 318.595 829.144 333.554C846.822 350.017 861.502 369.252 872.923 391.005" stroke="url(#paint11_linear_35_10)" stroke-width="2" stroke-linecap="round" stroke-dasharray="4 4"/>
<path opacity="0.54" d="M864.902 415.237C872.938 436.861 877.863 458.851 880.112 480.608C882.447 502.127 882.596 522.845 880.871 542.324C879.893 560.98 877.329 578.33 873.366 594.343C870.566 609.729 866.62 624.305 861.762 638.427C858.508 652.846 854.709 667.801 850.623 683.735C848.612 701.134 846.575 720.352 844.532 741.534C844.459 764.515 843.986 789.379 842.556 815.466C841.774 842.133 838.731 868.762 832.406 894.138C824.522 917.755 812.343 937.58 795.991 953.238C777.091 966.108 754.138 974.917 727.965 980.057C700.083 983.115 670.078 983.383 639.171 981.418C608.163 978.522 577.497 973.981 548.245 967.975C520.303 961.48 494.619 953.413 471.936 943.523C451.26 932.929 433.81 920.069 419.825 904.758C407.588 888.572 398.321 869.862 391.773 848.826C385.708 827.549 381.21 804.618 377.759 780.625C372.986 757.776 368.396 735.892 363.703 715.467C356.899 696.992 350.067 680.153 343.501 665.008C335.279 651.599 328.062 639.447 322.401 628.386C313.949 613.383 309.158 584.726 313.523 569.591C317.112 558.552 323.146 546.636 331.385 533.787C338.849 519.638 348.091 504.345 358.856 488.105C368.568 470.464 379.695 452.026 392.314 433.153C404.213 413.495 417.469 394.917 432.083 377.872C446.886 361.01 463.586 346.171 482.088 333.547C501.394 321.741 522.688 312.333 545.604 305.301C569.4 299.233 594.577 295.484 620.518 293.93C646.854 293.368 673.401 294.954 699.42 298.671C725.075 303.462 749.54 310.487 772.101 319.815C793.618 330.389 812.782 343.395 829.025 358.772C844.01 375.425 856.054 394.332 864.902 415.237Z" stroke="url(#paint12_linear_35_10)" stroke-width="2" stroke-linecap="round" stroke-dasharray="8 7"/>
<path opacity="0.51" d="M854.589 436.763C860.336 457.168 863.167 477.732 863.551 497.944C863.978 518.048 862.412 537.401 859.219 555.723C856.696 573.531 852.852 590.276 847.912 605.989C844.114 621.407 839.458 636.269 834.165 650.86C830.359 665.905 826.169 681.473 821.735 697.911C819.019 715.665 816.177 734.907 813.095 755.651C811.524 777.869 809.303 801.421 806.022 825.735C803.134 850.43 798.145 874.763 790.317 897.703C781.25 919.06 768.748 936.798 752.938 950.617C735.197 961.917 714.244 969.325 690.804 973.095C665.997 974.85 639.544 973.664 612.441 970.015C585.198 965.258 558.332 958.616 532.775 950.313C508.257 941.417 485.795 930.943 466.084 918.84C448.011 906.166 432.872 891.672 420.96 875.311C410.473 858.365 402.766 839.564 397.67 819.117C392.931 798.573 389.838 776.842 387.968 754.428C384.906 732.901 382.3 712.367 379.83 693.197C375.446 675.495 371.207 659.302 367.302 644.7C359.426 625.448 348.175 593.77 346.598 579.992C346.662 566.372 357.784 536.932 368.394 520.062C375.488 507.357 384.284 493.701 394.702 479.256C404.259 463.523 415.328 447.087 427.96 430.312C440.005 412.772 453.379 396.238 468.005 381.074C482.701 366.033 499.056 352.86 516.872 341.756C535.238 331.37 555.236 323.277 576.479 317.469C598.34 312.631 621.234 310.065 644.621 309.727C668.208 310.376 691.822 313.207 714.775 318.114C737.302 324.083 758.633 332.157 778.086 342.306C796.561 353.557 812.794 366.935 826.254 382.31C838.564 398.695 848.105 416.949 854.589 436.763Z" stroke="url(#paint13_linear_35_10)" stroke-width="2" stroke-linecap="round" stroke-dasharray="3 5"/>
<path opacity="0.47" d="M842.887 456.176C846.599 475.177 847.692 494.222 846.579 512.918C845.478 531.558 842.602 549.588 838.287 566.788C834.58 583.705 829.767 599.861 824.094 615.26C819.447 630.608 814.127 645.63 808.384 660.522C803.903 675.976 799.119 691.92 794.104 708.57C790.471 726.402 786.582 745.342 782.372 765.361C779.242 786.545 775.357 808.588 770.395 830.933C765.671 853.531 759.095 875.473 750.096 895.934C740.183 914.976 727.616 930.618 712.552 942.589C696.083 952.357 677.205 958.443 656.504 961.039C634.769 961.741 611.872 959.479 588.623 954.68C565.251 948.71 542.328 940.687 520.645 930.93C499.75 920.508 480.739 908.528 464.187 895.093C448.891 881.191 436.248 865.801 426.486 849.013C417.818 831.841 411.713 813.337 408.016 793.701C404.529 774.093 402.691 753.663 402.174 732.865C400.59 712.748 399.659 693.62 399.03 675.786C396.723 659.059 394.706 643.682 393.012 629.778C388.602 610.997 383.082 579.924 383.369 566.541C384.647 553.346 396.168 525.802 406.271 510.439C413.036 498.917 421.47 486.678 431.478 473.833C440.805 459.849 451.696 445.314 464.164 430.579C476.145 415.107 489.381 400.588 503.732 387.355C518.088 374.167 533.829 362.712 550.732 353.163C567.973 344.233 586.486 337.449 605.914 332.853C625.689 329.111 646.185 327.591 666.906 328.233C687.655 329.794 708.251 333.456 728.069 339.148C747.432 345.791 765.565 354.402 781.935 364.899C797.387 376.339 810.725 389.609 821.514 404.562C831.286 420.307 838.477 437.613 842.887 456.176Z" stroke="url(#paint14_linear_35_10)" stroke-width="2" stroke-linecap="round" stroke-dasharray="6 5"/>
<path opacity="0.43" d="M830.427 474.148C832.4 491.646 832.06 509.133 829.762 526.294C827.455 543.483 823.596 560.208 818.511 576.311C813.916 592.344 808.378 607.849 802.14 622.848C796.753 637.967 790.847 652.941 784.579 667.887C779.367 683.438 773.86 699.409 768.156 715.929C763.481 733.415 758.486 751.726 753.101 770.695C748.454 790.563 743.091 810.881 736.717 831.122C730.464 851.457 722.641 870.969 712.869 888.905C702.434 905.624 690.07 919.163 675.946 929.335C660.832 937.667 644.016 942.53 626.024 944.159C607.309 944.096 587.867 941.145 568.345 935.68C548.768 929.093 529.734 920.401 511.882 909.959C494.644 898.848 479.068 886.225 465.657 872.288C453.199 857.954 443.045 842.39 435.44 825.782C428.614 808.92 424.061 791.1 421.686 772.56C419.402 754.061 418.679 735.097 419.295 715.932C419.011 697.298 419.424 679.654 420.283 663.212C419.732 647.542 419.512 633.114 419.663 620C418.192 601.919 417.672 571.61 419.65 558.504C422.16 545.606 434.339 519.418 444.118 505.26C450.668 494.744 458.751 483.755 468.351 472.35C477.435 459.945 488.013 447.204 500.126 434.406C511.865 420.943 524.729 408.413 538.526 397.087C552.295 385.754 567.186 376.003 582.956 368.017C598.913 360.524 615.777 355.011 633.255 351.528C650.86 348.803 668.908 348.134 686.932 349.509C704.854 351.725 722.432 355.91 739.177 361.972C755.441 368.858 770.5 377.576 783.852 387.971C796.414 399.133 807.04 411.894 815.335 426.084C822.762 440.901 827.841 456.995 830.427 474.148Z" stroke="url(#paint15_linear_35_10)" stroke-width="2" stroke-linecap="round"/>
<path opacity="0.39" d="M817.626 491.477C818.128 507.359 816.643 523.27 813.482 538.931C810.267 554.662 805.691 570.104 800.064 585.111C794.814 600.161 788.752 614.907 782.103 629.353C776.097 644.028 769.641 658.693 762.907 673.38C756.951 688.631 750.709 704.263 744.244 720.223C738.536 736.98 732.483 754.278 726.02 771.882C720.064 790.135 713.423 808.49 705.927 826.495C698.493 844.492 689.804 861.528 679.648 876.97C669.009 891.395 657.084 902.917 644.046 911.387C630.329 918.333 615.6 922.157 600.178 923.019C584.311 922.424 568.123 919.136 552.12 913.47C536.12 906.78 520.748 898.036 506.507 887.599C492.703 876.533 480.42 864.035 469.995 850.344C460.271 836.3 452.518 821.21 446.929 805.338C441.875 789.28 438.785 772.535 437.629 755.319C436.452 738.201 436.729 720.773 438.282 703.317C439.055 686.231 440.581 670.078 442.622 655.059C443.458 640.544 444.702 627.126 446.325 614.884C447.281 597.668 451.007 568.332 454.521 555.528C458.228 542.898 471.311 517.821 480.897 504.695C487.345 495.08 495.174 485.189 504.346 475.128C513.14 464.178 523.322 453.104 534.912 442.142C546.218 430.58 558.484 419.964 571.526 410.469C584.479 400.928 598.309 392.861 612.752 386.371C627.25 380.277 642.367 375.958 657.787 373.496C673.221 371.628 688.803 371.668 704.176 373.564C719.336 376.139 734.054 380.547 747.855 386.678C761.183 393.456 773.345 401.899 783.947 411.837C793.827 422.362 801.951 434.297 808.019 447.473C813.34 461.092 816.589 475.827 817.626 491.477Z" stroke="url(#paint16_linear_35_10)" stroke-width="2" stroke-linecap="round" stroke-dasharray="6 6"/>
<path opacity="0.35" d="M804.58 508.808C803.912 523.065 801.534 537.365 797.751 551.544C793.871 565.804 788.831 579.913 782.883 593.795C777.181 607.752 770.755 621.626 763.824 635.309C757.345 649.268 750.463 663.298 743.297 677.374C736.683 691.925 729.783 706.738 722.647 721.773C716.042 737.399 709.07 753.297 701.743 769.227C694.744 785.61 687.172 801.85 678.903 817.522C670.669 833.115 661.499 847.693 651.29 860.714C640.759 872.911 629.512 882.498 617.691 889.398C605.432 895.067 592.666 898 579.691 898.298C566.447 897.407 553.226 894.091 540.412 888.611C527.627 882.213 515.549 873.922 504.562 864.062C493.897 853.645 484.557 841.871 476.83 829.035C469.572 815.908 464.004 801.863 460.236 787.18C456.831 772.377 455.072 757.039 454.939 741.391C454.771 725.82 455.873 710.078 458.173 694.364C459.818 678.906 462.212 664.319 465.121 650.718C468.269 631.266 475.096 597.588 479.004 583.123C482.35 569.481 492.053 544.774 498.863 533.102C506.152 520.832 525.866 495.475 538.398 482.216C546.899 472.665 556.586 463.169 567.487 453.911C578.209 444.141 589.692 435.324 601.745 427.579C613.697 419.744 626.277 413.238 639.24 408.158C652.178 403.345 665.457 400.125 678.801 398.562C692.077 397.435 705.261 398.005 718.096 400.221C730.664 402.971 742.678 407.34 753.766 413.258C764.419 419.667 773.945 427.552 782.042 436.75C789.539 446.398 795.462 457.263 799.607 469.211C803.101 481.478 804.799 494.725 804.58 508.808Z" stroke="url(#paint17_linear_35_10)" stroke-width="2" stroke-linecap="round" stroke-dasharray="8 7"/>
<path opacity="0.32" d="M791.192 526.686C787.734 551.958 778.942 577.67 766.686 602.796C754.966 628.43 740.889 654.333 725.633 680.098C711.84 707.386 696.803 735.545 680.778 763.233C665.507 791.991 648.148 818.979 628.458 840.905C607.957 860.223 586.316 870.132 564.969 870.903C543.035 867.963 522.669 856.877 506.056 839.658C490.339 820.519 479.531 796.865 474.853 770.736C470.932 744.266 472.158 716.217 478.238 688.277C482.277 660.952 488.805 636.618 496.646 615.831C501.479 595.455 508.198 577.689 516.995 562.476C523.866 546.283 533.939 531.114 547.448 516.981C559.954 500.571 576.408 484.407 596.8 469.605C616.647 453.121 638.77 440.705 661.597 433.057C684.139 425.981 706.991 424.701 728.132 429.149C748.265 435.027 765.546 446.546 777.934 462.829C788.321 480.259 793.096 501.897 791.192 526.686Z" stroke="url(#paint18_linear_35_10)" stroke-width="2" stroke-linecap="round" stroke-dasharray="5 5"/>
<path opacity="0.28" d="M777.089 545.351C772.394 567.239 763.206 589.855 751.066 612.298C739.131 635.168 725.005 658.553 709.761 681.747C695.339 706.068 679.723 730.754 663.396 754.43C647.459 778.716 630.084 800.925 611.507 818.464C592.461 834.008 573.661 841.651 556.219 841.73C538.523 839.062 522.978 829.49 511.006 814.66C499.66 798.279 492.526 777.956 490.441 755.413C488.702 732.582 491.276 708.344 497.962 684.13C503.118 660.254 510.575 638.789 519.28 620.168C525.736 601.642 533.824 585.229 543.476 570.987C551.62 555.862 562.229 541.828 575.374 529.097C587.817 514.611 603.324 500.87 621.804 488.885C639.986 475.547 659.475 466.008 679.014 460.626C698.217 455.489 716.992 455.282 733.784 459.896C749.629 465.394 762.629 475.648 771.27 490.002C778.317 505.042 780.532 523.756 777.089 545.351Z" stroke="url(#paint19_linear_35_10)" stroke-width="2" stroke-linecap="round" stroke-dasharray="5 2"/>
<path opacity="0.24" d="M761.871 564.782C756.469 583.323 747.28 602.742 735.574 622.202C723.904 642.003 710.183 662.339 695.442 682.413C681.081 703.199 665.664 723.993 649.747 743.464C634.014 763.189 617.412 780.817 600.495 794.364C583.36 806.441 567.387 812.121 553.374 811.806C539.328 809.522 527.694 801.658 519.37 789.471C511.448 776.121 507.132 759.398 506.91 740.689C506.796 721.759 510.248 701.479 517.172 681.022C522.982 660.726 530.855 642.232 539.914 625.907C547.374 609.516 556.277 594.743 566.354 581.815C575.335 568.149 586.157 555.548 598.762 544.409C610.895 531.983 625.272 520.597 641.658 511.186C657.89 500.701 674.619 493.657 690.823 490.157C706.743 486.663 721.758 487.263 734.619 491.774C746.721 496.755 756.101 505.656 761.673 517.942C766.061 530.583 766.338 546.372 761.871 564.782Z" stroke="url(#paint20_linear_35_10)" stroke-width="2" stroke-linecap="round" stroke-dasharray="4 4"/>
<path opacity="0.2" d="M745.094 584.577C739.449 599.812 730.696 615.914 719.836 632.145C708.898 648.625 696.141 665.512 682.463 682.038C668.926 698.995 654.452 715.633 639.753 730.9C625.097 746.203 610.045 759.565 595.251 769.535C573.792 780.53 540.964 777.1 531.111 764.494C525.72 754.168 523.385 741.045 524.346 726.212C525.268 711.181 529.121 694.877 535.883 678.168C541.886 661.549 549.712 646.116 558.587 632.263C566.463 618.278 575.558 605.515 585.534 594.245C594.812 582.393 605.414 571.571 617.134 562.181C628.612 551.906 641.53 542.832 655.653 535.706C669.685 527.802 683.583 522.876 696.555 520.877C715.093 519.304 742.4 532.19 748.784 546.137C751.128 556.456 750.057 569.402 745.094 584.577Z" stroke="url(#paint21_linear_35_10)" stroke-width="2" stroke-linecap="round" stroke-dasharray="1 6"/>
<path opacity="0.16" d="M726.411 604.073C715.244 628.043 694.576 655.214 670.636 680.559C646.731 706.627 619.831 730.623 595.293 744.888C570.726 756.661 553.47 753.824 546.03 740.204C539.013 724.628 541.586 701.026 554.341 675.056C565.127 649.124 582.072 625.724 601.087 607.508C618.465 587.797 640.043 571.159 663.346 561.56C686.63 549.932 707.298 548.423 720.706 555.897C732.789 563.377 735.829 580.117 726.411 604.073Z" stroke="url(#paint22_linear_35_10)" stroke-width="2" stroke-linecap="round" stroke-dasharray="6 3"/>
<path opacity="0.13" d="M705.649 622.372C695.981 639.964 679.1 659.742 659.813 677.769C640.396 696.011 618.872 712.153 599.947 721.125C574.891 727.633 560.874 698.352 572.911 671.405C582.461 652.58 597.078 634.999 613.239 621.058C628.596 606.311 646.636 594.175 664.645 587.771C690.039 580.154 713.99 598.476 705.649 622.372Z" stroke="url(#paint23_linear_35_10)" stroke-width="2" stroke-linecap="round" stroke-dasharray="4 7"/>
<path opacity="0.09" d="M682.874 638.407C667.966 661.219 634.171 688.688 608.368 698.775C582.875 706.492 576.13 691.116 591.995 667.267C605.968 643.167 635.033 620.119 659.659 613.37C684.563 604.509 696.008 615.378 682.874 638.407Z" stroke="url(#paint24_linear_35_10)" stroke-width="2" stroke-linecap="round" stroke-dasharray="8 5"/>
<defs>
<linearGradient id="paint0_linear_35_10" x1="61040.9" y1="30.6024" x2="61040.9" y2="121694" gradientUnits="userSpaceOnUse">
<stop stop-color="#67355E"/>
<stop offset="0.0001" stop-color="#FF57E1"/>
<stop offset="1" stop-color="#21FF53"/>
</linearGradient>
<linearGradient id="paint1_linear_35_10" x1="58693.8" y1="4152.73" x2="50439.4" y2="121024" gradientUnits="userSpaceOnUse">
<stop stop-color="#67355E"/>
<stop offset="0.0001" stop-color="#FF57E1"/>
<stop offset="1" stop-color="#21FF53"/>
</linearGradient>
<linearGradient id="paint2_linear_35_10" x1="56078.5" y1="7942.01" x2="40243.9" y2="119481" gradientUnits="userSpaceOnUse">
<stop stop-color="#67355E"/>
<stop offset="0.0001" stop-color="#FF57E1"/>
<stop offset="1" stop-color="#21FF53"/>
</linearGradient>
<linearGradient id="paint3_linear_35_10" x1="53229.6" y1="11381.9" x2="30527.3" y2="117098" gradientUnits="userSpaceOnUse">
<stop stop-color="#67355E"/>
<stop offset="0.0001" stop-color="#FF57E1"/>
<stop offset="1" stop-color="#21FF53"/>
</linearGradient>
<linearGradient id="paint4_linear_35_10" x1="50182.7" y1="14459" x2="21356.9" y2="113937" gradientUnits="userSpaceOnUse">
<stop stop-color="#67355E"/>
<stop offset="0.0001" stop-color="#FF57E1"/>
<stop offset="1" stop-color="#21FF53"/>
</linearGradient>
<linearGradient id="paint5_linear_35_10" x1="46969.9" y1="17161.5" x2="12790" y2="110060" gradientUnits="userSpaceOnUse">
<stop stop-color="#67355E"/>
<stop offset="0.0001" stop-color="#FF57E1"/>
<stop offset="1" stop-color="#21FF53"/>
</linearGradient>
<linearGradient id="paint6_linear_35_10" x1="43631.4" y1="19483" x2="4882.46" y2="105543" gradientUnits="userSpaceOnUse">
<stop stop-color="#67355E"/>
<stop offset="0.0001" stop-color="#FF57E1"/>
<stop offset="1" stop-color="#21FF53"/>
</linearGradient>
<linearGradient id="paint7_linear_35_10" x1="40204.2" y1="21419.6" x2="-2324.32" y2="100470" gradientUnits="userSpaceOnUse">
<stop stop-color="#67355E"/>
<stop offset="0.0001" stop-color="#FF57E1"/>
<stop offset="1" stop-color="#21FF53"/>
</linearGradient>
<linearGradient id="paint8_linear_35_10" x1="36727" y1="22971.7" x2="-8818.99" y2="94962.8" gradientUnits="userSpaceOnUse">
<stop stop-color="#67355E"/>
<stop offset="0.0001" stop-color="#FF57E1"/>
<stop offset="1" stop-color="#21FF53"/>
</linearGradient>
<linearGradient id="paint9_linear_35_10" x1="33234.4" y1="24140.9" x2="-14581.3" y2="89091.4" gradientUnits="userSpaceOnUse">
<stop stop-color="#67355E"/>
<stop offset="0.0001" stop-color="#FF57E1"/>
<stop offset="1" stop-color="#21FF53"/>
</linearGradient>
<linearGradient id="paint10_linear_35_10" x1="29751.7" y1="24923.7" x2="-19562.4" y2="82867.5" gradientUnits="userSpaceOnUse">
<stop stop-color="#67355E"/>
<stop offset="0.0001" stop-color="#FF57E1"/>
<stop offset="1" stop-color="#21FF53"/>
</linearGradient>
<linearGradient id="paint11_linear_35_10" x1="26331.6" y1="25342.2" x2="-23706.3" y2="76367.9" gradientUnits="userSpaceOnUse">
<stop stop-color="#67355E"/>
<stop offset="0.0001" stop-color="#FF57E1"/>
<stop offset="1" stop-color="#21FF53"/>
</linearGradient>
<linearGradient id="paint12_linear_35_10" x1="23006.7" y1="25408.4" x2="-27031.2" y2="69709.4" gradientUnits="userSpaceOnUse">
<stop stop-color="#67355E"/>
<stop offset="0.0001" stop-color="#FF57E1"/>
<stop offset="1" stop-color="#21FF53"/>
</linearGradient>
<linearGradient id="paint13_linear_35_10" x1="19798.9" y1="25125.8" x2="-29534.1" y2="62953" gradientUnits="userSpaceOnUse">
<stop stop-color="#67355E"/>
<stop offset="0.0001" stop-color="#FF57E1"/>
<stop offset="1" stop-color="#21FF53"/>
</linearGradient>
<linearGradient id="paint14_linear_35_10" x1="16741.3" y1="24511.5" x2="-31227.6" y2="56189.2" gradientUnits="userSpaceOnUse">
<stop stop-color="#67355E"/>
<stop offset="0.0001" stop-color="#FF57E1"/>
<stop offset="1" stop-color="#21FF53"/>
</linearGradient>
<linearGradient id="paint15_linear_35_10" x1="13863.9" y1="23583.5" x2="-32121.1" y2="49494.7" gradientUnits="userSpaceOnUse">
<stop stop-color="#67355E"/>
<stop offset="0.0001" stop-color="#FF57E1"/>
<stop offset="1" stop-color="#21FF53"/>
</linearGradient>
<linearGradient id="paint16_linear_35_10" x1="11197.2" y1="22366.5" x2="-32229.7" y2="42950" gradientUnits="userSpaceOnUse">
<stop stop-color="#67355E"/>
<stop offset="0.0001" stop-color="#FF57E1"/>
<stop offset="1" stop-color="#21FF53"/>
</linearGradient>
<linearGradient id="paint17_linear_35_10" x1="8768.46" y1="20887" x2="-31582.3" y2="36635.3" gradientUnits="userSpaceOnUse">
<stop stop-color="#67355E"/>
<stop offset="0.0001" stop-color="#FF57E1"/>
<stop offset="1" stop-color="#21FF53"/>
</linearGradient>
<linearGradient id="paint18_linear_35_10" x1="6584.92" y1="19121.4" x2="-30141.6" y2="30546.4" gradientUnits="userSpaceOnUse">
<stop stop-color="#67355E"/>
<stop offset="0.0001" stop-color="#FF57E1"/>
<stop offset="1" stop-color="#21FF53"/>
</linearGradient>
<linearGradient id="paint19_linear_35_10" x1="4706.76" y1="17209.7" x2="-28105.2" y2="24929.9" gradientUnits="userSpaceOnUse">
<stop stop-color="#67355E"/>
<stop offset="0.0001" stop-color="#FF57E1"/>
<stop offset="1" stop-color="#21FF53"/>
</linearGradient>
<linearGradient id="paint20_linear_35_10" x1="3127.02" y1="15116.6" x2="-25430.7" y2="19741.9" gradientUnits="userSpaceOnUse">
<stop stop-color="#67355E"/>
<stop offset="0.0001" stop-color="#FF57E1"/>
<stop offset="1" stop-color="#21FF53"/>
</linearGradient>
<linearGradient id="paint21_linear_35_10" x1="1838.09" y1="12604.4" x2="-22192" y2="14774.4" gradientUnits="userSpaceOnUse">
<stop stop-color="#67355E"/>
<stop offset="0.0001" stop-color="#FF57E1"/>
<stop offset="1" stop-color="#21FF53"/>
</linearGradient>
<linearGradient id="paint22_linear_35_10" x1="925.252" y1="10465.9" x2="-18320.4" y2="10842.2" gradientUnits="userSpaceOnUse">
<stop stop-color="#67355E"/>
<stop offset="0.0001" stop-color="#FF57E1"/>
<stop offset="1" stop-color="#21FF53"/>
</linearGradient>
<linearGradient id="paint23_linear_35_10" x1="351.641" y1="7586.89" x2="-13102.5" y2="6900.63" gradientUnits="userSpaceOnUse">
<stop stop-color="#67355E"/>
<stop offset="0.0001" stop-color="#FF57E1"/>
<stop offset="1" stop-color="#21FF53"/>
</linearGradient>
<linearGradient id="paint24_linear_35_10" x1="85.9159" y1="5558.02" x2="-9467.64" y2="4391.76" gradientUnits="userSpaceOnUse">
<stop stop-color="#67355E"/>
<stop offset="0.0001" stop-color="#FF57E1"/>
<stop offset="1" stop-color="#21FF53"/>
</linearGradient>
</defs>
</svg>
